/* XPM */
static char *fda259fcb906416882c66879c2ea0385dRFAUjyzIBzFJWyQ[] = {
/* columns rows colors chars-per-pixel */
"100 100 63 1 ",
"  c #2B1D0D",
". c #B4846D",
"X c #BD8C72",
"o c #BB8972",
"O c #2E1F0E",
"+ c #41200B",
"@ c #271B0A",
"# c #45220E",
"$ c #AA7D66",
"% c #241808",
"& c #9C694C",
"* c #8B4C3D",
"= c #332411",
"- c #6A4030",
"; c white",
": c #7A4E33",
"> c #523D89",
", c #BE8F74",
"< c #83563D",
"1 c #AC765A",
"2 c #815339",
"3 c #6F442C",
"4 c #AD806D",
"5 c #6D422A",
"6 c #8F5E3E",
"7 c #411D09",
"8 c #C69680",
"9 c #905E43",
"0 c #805334",
"q c #B57B67",
"w c #9C725C",
"e c #A26A47",
"r c #3F2A15",
"t c #9C6346",
"y c #B6896C",
"u c #422A12",
"i c #965F40",
"p c #B47B62",
"a c #B78272",
"s c #BE886C",
"d c #613D29",
"f c #B08068",
"g c #4B3789",
"h c #9A6141",
"j c #FEFDFE",
"k c #39250F",
"l c #4A3522",
"z c #976C73",
"x c #A16D50",
"c c #C48D6F",
"v c #894B3C",
"b c #A4755F",
"n c #5D2F1E",
"m c #BA8067",
"M c #502A15",
"N c #C19A86",
"B c #CAA999",
"V c #A46E54",
"C c #8B664E",
"Z c #E7D8D0",
"A c #DAD6E6",
"S c #6C5B9B",
"D c #765681",
/* pixels */
"OOOOOOOOOOOO             OOOOOOOOOOOO @@@@@@@@@@@@%%%%%%%%%%%%%@@@@@@@@@@@@                         ",
"OOOOOOOOOOOO             OOOOOOOOOOOO @@@@@@@@@@@@%%%%%%%%%%%%%@@@@@@@@@@@@                         ",
"OOOOOOOOOOOO             OOOOOOOOOOOO @@@@@@@@@@@@%%%%%%%%%%%%%@@@@@@@@@@@@                         ",
"OOOOOOOOOOOO             OOOOOOOOOOOO @@@@@@@@@@@@%%%%%%%%%%%%%@@@@@@@@@@@@                         ",
"OOOOOOOOOOOO             OOOOOOOOOOOO @@@@@@@@@@@@%%%%%%%%%%%%%@@@@@@@@@@@@                         ",
"OOOOOOOOOOOO             OOOOOOOOOOOO @@@@@@@@@@@@%%%%%%%%%%%%%@@@@@@@@@@@@                         ",
"OOOOOOOOOOOO             OOOOOOOOOOOO @@@@@@@@@@@@%%%%%%%%%%%%%@@@@@@@@@@@@                         ",
"OOOOOOOOOOOO             OOOOOOOOOOOO @@@@@@@@@@@@%%%%%%%%%%%%%@@@@@@@@@@@@                         ",
"OOOOOOOOOOOO             OOOOOOOOOOOO @@@@@@@@@@@@%%%%%%%%%%%%%@@@@@@@@@@@@                         ",
"OOOOOOOOOOOO             OOOOOOOOOOOO @@@@@@@@@@@@%%%%%%%%%%%%%@@@@@@@@@@@@                         ",
"OOOOOOOOOOOO             OOOOOOOOOOOO @@@@@@@@@@@@%%%%%%%%%%%%%@@@@@@@@@@@@                         ",
"OOOOOOOOOOOO             OOOOOOOOOOOO @@@@@@@@@@@@%%%%%%%%%%%%%%%%%%%%%%%%%                         ",
"                                     OOOOOOOOOOOO=kkkkkkkkkkkkkkkkkkkkkkkk=             @@@@@@@@@@@ ",
"                                     =============uuuuuuuuuuuuurrrrrrrrrrrr             @@@@@@@@@@@ ",
"                                     O============uuuuuuuuuuuurrrrrrrrrrrrk             @@@@@@@@@@@ ",
"                                     O============uuuuuuuuuuuurrrrrrrrrrrrr             @@@@@@@@@@@ ",
"                                     =============uuuuuuuuuuuurrrrrrrrrrrrr             @@@@@@@@@@@ ",
"                                     O============uuuuuuuuuuuurrrrrrrrrrrrr             @@@@@@@@@@@ ",
"                                     O============uuuuuuuuuuuurrrrrrrrrrrrr             @@@@@@@@@@@ ",
"                                     O============uuuuuuuuuuuurrrrrrrrrrrrr             @@@@@@@@@@@ ",
"                                     =============uuuuuuuuuuuurrrrrrrrrrrrr             @@@@@@@@@@@ ",
"                                     O============uuuuuuuuuuuurrrrrrrrrrrrr             @@@@@@@@@@@ ",
"            OOOOOOOOOOOOOOOOOOOOOOOOO============kuuuuuuuuuuuuurrrrrrrrrrrrOOOOOOOOOOOO @@@@@@@@@@@ ",
"            @%%%%%%%%%%%%%%%%%%%%%%%%@O          Okkukkkkukkkkkkkkkkkkkkkk=@@@@@@@@@@@@@@@@@@@@@@@@@",
"            rlllllllllllllllllllllllllldlldlldldldddddddddddddddddddddddddlllllllllllrl=@           ",
"          O%C,yooooooooyX,,,,,,,,,,,,8888888888888X,X,X,X,X,X,,,,,,,,,,,,,,11111111111pd ===========",
"          O%C,yyyyyyyyyyyX,X,X,X,X,,X8888888888888oXXXXXXXXXXoX,,,,,,,,,,,o11111111111pdO===========",
"          O%C,yyyyyyyyyyy,X,X,X,X,XXX8888888888888XXXXXXXXXXXXX,X,,,,,,X,,o11111111111pdO=k===k=====",
"          O%C,yyyyyyyyyyy,XX,X,XX,X,X,888888888888oXXXXXXXXXXXX,,X,o,,X,,,y11111111111pdO========k==",
"          O%C,yyyyyyyyyyyX,X,XX,X,XXX8888888888888XXXXXXXXXXXo,X,,,,,X,,,,o11111111111pdO===k=======",
"          O%C,yyyyyyyyyyy,X,X,X,X,X,X,888888888888oXXXXXXXXXXXX,,o,,,,o,,,o11111111111pdO======k====",
"          O%C,yyyyyyyyyyyX,XX,X,XX,XX8888888888888XXXXXXXXXXXXX,,,,,o,,,,,o11111111111pdO=k=========",
"          O%C,yyyyyyyyyyy,X,X,XX,X,XX,888888888888oXXXXXXXXXXXX,X,,,,,X,X,o11111111111pdO====r======",
"          O%C,yyyyyyyyyyy,X,X,X,X,X,X8888888888888XXXXXXXXXXXXX,,,X,o,,,,,o11111111111pdO=======k===",
"          O%C,yyyyyyyyyyy,XX,X,X,XX,X,888888888888oXXXXXXXXXXXX,X,,,,,o,,,y11111111111pdO=k=========",
"OOOOOOOOOOO%C,yyyyyyyyyyy,X,X,XX,X,XX8888888888888oXXXXXXXXXXXo,,,,o,,,,,,o11111111111pdOk===r==r=k=",
"%%%%%%%%%%%%C,yyyyyyyyyyy,,,,,,,,,,,X8888888888888XXXXXXXXXXXX,,X,,,,X,X,,o11111111111pd@OOOOOOOOOOO",
"<C<<C<<C<<C<by..........yffffffffffff.aaoaoaoaoao.$$$$$$$$$$$b.XoooooooooX.xxxxxxxxxxxx6::2:2::2::2:",
".44.44.44.44............f$$$$$$$$$$$$$44444444444$wwwwwwwwwwwwfXoooooooooo.&&&&&&&&&&&&xxxxxxVxxVxxx",
"$$$$$$$$$$$$f............$$$$$$$$$$$$444444444444$wwwwwwwwwwwwfXoooooooooo.&&&&&&&&&&&&&&&&&&&&&&&&&",
"$$$$$$$$$$$$4............$$$$$$$$$$$$$44444444444$wwwwwwwwwwww4Xoooooooooo.&&&&&&&&&&&&&&&&&&&&&&&&&",
"$$$$$$$$$$$$............f$$$$$$$$$$$$444444444444$wwwwwwwwwwwwfXoooooooooX.&&&&&&&&&&&&&&&&&&&&&&&&&",
"$$$$$$$$$$$$f............$$$$$$$$$$$$$444444444444wwwwwwwwwwwwfXoooooooooo.&&&&&&&&&&&&&&&&&&&&&&&&&",
"$$$$$$$$$$$$f............$$$$$$$$$$$$444444444444$wwwwwwwwwwwwfXoooooooooX.&&&&&&&&&&&&&&&&&&&&&&&&&",
"$$$$$$$$$$$$f............$$$$$$$$$$$$$44444444444$wwwwwwwwwwww4Xoooooooooo.&&&&&&&&&&&&&&&&&&&&&&&&&",
"$$$$$$$$$$$$f............$$$$$$$$$$$$444444444444$wwwwwwwwwwwwfXoooooooooX.&&&&&&&&&&&&&&&&&&&&&&&&&",
"$$$$$$$$$$$$f............$$$$$$$$$$$$$444444444444wwwwwwwwwwwwfXoooooooooo.&&&&&&&&&&&&&&&&&&&&&&&&&",
"$$$$$$$$$$$$............f$$$$$$$$$$$$$44444444444$wwwwwwwwwwww4ooooooooooo.&&&&&&&&&&&&&&&&&&&&&&&&&",
"$$$$$$$$$$$$ffffffffffffff$f$f$f$f$ff4444444444444wwwwwwwwwwwwfcXXXXXXXXX,yttttttttttttt&&&&&&&&&&&&",
"$$$$$$$$$$$$,NNNNNNNNNNN,zzzwzzwzzwzz$f4444444444$bbbbbbbbbbbw4444444444444444444444444b&xxx&xx&xx&x",
"...........fZ;j;;;;;;;j;Ag>>>>>>>>>>gzmqqqqqqqqqqqooooooooooo,Dg>ggggggg>gS;;;;;;;;;;j;Bb$$$$$$$$$$$",
"...........pZ;j;;;;;;;j;Ag>>>>>>>>>>gzmqqqqqqqqqqqooooooooooocDg>>>>>>>>>gS;;;;;;;;;;j;Bb$$$$$$$$$$$",
"...........fZ;j;;;;;;;j;Ag>>>>>>>>>>gzmqqqqqqqqqqqooooooooooo,Dg>>>>>>>>>gSj;j;;;;;;;j;Bb$$$$$$$$$$$",
"...........fZ;j;;;;;;;j;Ag>>>>>>>>>>gzmqqqqqqqqqqqooooooooooocDg>>>>>>>>>gS;;;;;;;;;;j;Bb$$$$$$$$$$$",
"...........fZ;j;;;;;;;j;Ag>>>>>>>>>>gzmqqqqqqqqqqqooooooooooo,Dg>>>>>>>>>gS;;;;;;;;;;j;Bb$$$$$$$$$$$",
"...........fZ;j;;;;;;;j;Ag>>>>>>>>>>gzmqqqqqqqqqqqooooooooooocDg>>>>>>>>>gS;;;;;;;;;;j;Bb$$$$$$$$$$$",
"...........fZ;j;;;;;;;j;Ag>>>>>>>>>>gzmqqqqqqqqqqqooooooooooocDg>>>>>>>>>gS;;;;;;;;;;j;Bb$$$$$$$$$$$",
"...........fZ;j;;;;;;;j;Ag>>>>>>>>>>gzmqqqqqqqqqqqooooooooooocDg>>>>>>>>>gS;;;;;;;;;;j;Bb$$$$$$$$$$$",
"...........fZ;j;;;;;;;j;Ag>>>>>>>>>>gzmqqqqqqqqqqqooooooooooocDg>>>>>>>>>gS;;;;;;;;;;j;Bb$$$$$$$$$$$",
"...........fZ;j;;;;;;;j;Ag>>>>>>>>>>gzmqqqqqqqqqqqooooooooooocDg>>>>>>>>>gS;;;;;;;;;;j;Bb$$$$$$$$$$$",
"...........fZ;jjjjjjjjj;Ag>>>>>>>>>>gzmqqqqqqqqqqqoooooooooooXDg>>>>>>>>>gSjjjjjjjjjjj;Bb$$$$$$$$$$$",
"..........yfZ;;;;;;;;;;;Aggggggggggggzsmmmmmmmmmmm,,,,,,,,,,,cDg>gggggggggS;;;;;;;;;;;;Bb4f4f$4f$4ff",
"VVVVVVVVVVVx8BBBBBBBBBBBNzzzzzzzzzzzzC<<<<<<<<<<<<<9<<9<<9<<C<zzzzzzzzzzzzzNNNNNNNNNNNNb699999999999",
"hhhhhhhhhhthV11111111111posooooooooa,<d-dd-d-d-d--d-d-d-d-d-ddVcccccccccccshhhhhhhhhhhh0:0:0:0:0:0:0",
"tttttttttttt1qppppppppppqaaaaaaaaaaaa<------------------------Vcssssssssssmeeeeeeeeeeee6000000000000",
"ttttttttttth1pppppppppppqaaaaaaaaaaao<d----------------------dVcssssssssssmeeeeeeeeeeee6000000000000",
"ttttttttttth1ppppppppppppaaaaaaaaaaao<d-----------------------Vcssssssssssmeeeeeeeeeeee6000000000000",
"ttttttttttth1pppppppppppqaaaaaaaaaaao<d----------------------dVcssssssssssmeeeeeeeeeeee6000000000000",
"ttttttttttth1ppppppppppppaaaaaaaaaaaa<d-----------------------Vcssssssssssmeeeeeeeeeeee6000000000000",
"ttttttttttth1pppppppppppqaaaaaaaaaaao<d----------------------dVcssssssssssmeeeeeeeeeeee6000000000000",
"ttttttttttth1ppppppppppppaaaaaaaaaaao<d-----------------------Vcssssssssssmeeeeeeeeeeee6000000000000",
"ttttttttttth1pppppppppppqaaaaaaaaaaao<d----------------------dVcssssssssssmeeeeeeeeeeee6000000000000",
"ttttttttttth1ppppppppppppaaaaaaaaaaaa<d-----------------------Vcssssssssssmeeeeeeeeeeee6000000000000",
"tttttttttttt1qppppppppppqooaooaooaoa,<d----------------------dVcscXcccccccseeeeeeeeeeee6000000000000",
"ttttttttttthV111111111111bbbbbbbbbbbb<-3-3-3-3-3-3-3-3-3-3-3--&p11111111111teeeeeeeeete6000000000000",
"999999999999iihiiiiiiiit0+++++++++++75*v**********************n+#########+M6666666666662222222222222",
"999999999999iiiiiiiiiiih0++++++++++#75*v********************v*n+#########+M666666666666<222222222222",
"999999999999iiiiiiiiiiih0+++++++++++75*v*v**v***v***v***v*****n+#########+M666666666666<222222222222",
"999999999999iiiiiiiiiiih0+++++#++++#k5*v**v**v*v**v**v*v**v*v*n+#########+M666666666666<222222222222",
"999999999999iiiiiiiiiiih0+++++++++++75*v*v**v*v**v*v*v**v*v***n+#########+M666666666666<222222222222",
"999999999999iiiiiiiiiiih0++++u+++u++75*v**v****v**v***v**v**v*n+#########+M666666666666<222222222222",
"999999999999iiiiiiiiiiih0+++++++++++75*v*v**v*v*v**v*v**v**v**n+#########+M66666666666i<222222222222",
"999999999999iiiiiiiiiiih0++++++++++#k5*v**v*v**v*v**v*v**v**v*n+#########+M666666666666<222222222222",
"999999999999iiiiiiiiiiih0+++++++++++75*v***v**v****v****v*v***n+#########+M666666666666<222222222222",
"999999999999iiiiiiiiiiih0++++u+++++#75*v*v**v**v*v**v*v***v*v*n+#########+M666666666666<222222222222",
"999999999999iiiiiiiiiiih0+++++++u+++75*vvvvvvvvvvvvvvvvvvvvvv*n+#########+M666666666666<222222222222",
"999999999999ihhhhhhhhhht2++++++++++u739**********************9n+#########+M66666666666i<222222222222",
":::::::::::::::::::::::05+++++++++++7MnnnnnnnnnnnnndnndnndnnnnM##########+M<<<6<<<<6<<<0::::::::::::",
"533333335355555555555555d++++u+++++++7777777777777+7++7+++++++###########+M<<22<<<22<<<:::::::::::::",
"333333333333555555555553d++++++++++++7777777777777#######################+M<2<<2<2<<<2<:::::::::::::",
"333333333333555555555553d+++++++u+++++7+77+77+77+7#######################+M<<2<<2<<2<<<0::::::::::::",
"333333333333555555555553d+++++++++++++77#77777#777#######################+M<<<2<<2<2<2<:::::::::::::",
"333333333333555555555553d+++u+++++#+++77777#77777########################+M<2<<2<<2<<2<0::::::::::::",
"333333333333555555555553d++++++++++++7777777777777#######################+M<2<2<<2<<2<<:::::::::::::",
"333333333333555555555553d++++++u++++#+77#77777#777#######################+M<<2<2<<2<<2<0::::::::::::",
"333333333333555555555553d++++++++++++777777#77777+#######################+M<2<<<<2<<2<<:::::::::::::",
"333333333333555555555553d++++#++++u+++777777777777#######################+M<<2<2<<2<<2<0::::::::::::",
"333333333333555555555553d+++++++++++#7777#77777#7+#######################+M<2<<2<2<<2<<:::::::::::::",
"333333333333555555553553d+++++k+++++++777777777777#######################+M<<2<<2<2<<2<0::::::::::::",
"333333333333555555555553d###u#####u#######################################M222222<2222<:::::::::::::"
};
