/* XPM */
static char *_b10175d529e4abbbdb3fe4e79938fabbaGZ0AnFLpCezMkG[] = {
/* columns rows colors chars-per-pixel */
"100 100 11 1 ",
"  c #665130",
". c #6A5534",
"X c #40321F",
"o c #9A7A4B",
"O c #7D633E",
"+ c #3B2E1B",
"@ c #6F5938",
"# c #927245",
"$ c #5B482D",
"% c #4E3E26",
"& c #463823",
/* pixels */
"&&&&&&$...........Oooooo#&++++X$@@@@@O###o#O&XXXX&                  .OOOOOO@@@@@@OOOOOO@.....Ooooooo",
"&&&&&%$... .@.@.@.Oooooo#&++X+X$@@.@@O##o##O&XX&X&       . .. . .  ..OOOOOO@@.@.@@OOOOO@.... Ooooooo",
"&&&&&& .. ....@...Oooooo#&+X+XX$@@@.@O#o##oO&XXXX&        .  .      .OOOOOO.@@@@@OOOOOO@.....@oooooo",
"&&&&&&$.......@.@.Oooooo#&++++X$@.@@@O###o#O&XX&X&      . . . .  . ..OOOOOO@@.@.@@OOOOO@.... Ooooooo",
"&&&%&& ... ..@.@..Oooooo#&+X+XX$@@@.@O#o##oO&XXXX&        . . .     .OOOOOO.@@@@@OOOOOO@.....Ooooooo",
"&&&&&&$.......@...Oooooo#&+++++ @@@@@O#####O&XX&X&       .      .  ..OOOOOO@@.@.@@OOOOO@.... Ooooooo",
"X&X&X&$     .@@@@@ %$%%$%XXXXXX@#####@$$$$$$$$$$$ O#####$&&&%&$  .  @######$%$%$$@OOOOO.%$%$% #ooooo",
"XXXXXX$     .@@@@@$++++++XXXXXXOoo#oo.XXXXX%     .#o#oo#$+X+++%.    Oooooo#$%%%&%@OOOOO %%%%& ######",
"XXXXXX$     .@@@@@ +++++++XXXXXOooooo.XXXXX%     .#ooooo$+++X+%. .  @ooooo#$%%%%%.OOOOO %%%%%$#o#o#o",
"XXXXXX$     .@@@@@$++++++XXXXXXOoo#oo.XX&XX%     .#oooo#$++X+X%.  . Oooooo#$%%&%%@OOOOO %&%%& ###o##",
"XXXXXX$     .@@@@@ +++++++XXXXXOooooo.XXXXX%     .#ooooo$+++X+%. .  @ooooo#$%%%%%@OOOOO %%%%% #o##o#",
"XXXXXX$     .@@@@@$+++++++XXXXXOo#o#o.X&X&X%     .#oooo#$++X+X%.  . Oooooo#$%%&%%@OOOOO %&%%& ###o##",
"++++++$ $  $ .....$++++++%%$%%$Oooooo.XXXXX%     .#ooooo%+++X+% . . @#####O%%%%%%.OOOOO %%%%& #oo#oo",
"++++++%$$$$$      $XXXXX& .....#ooooo.+XXXX&  .  .#oo#o#$++++X%     .OOOOOO%%%&%%@OOOOO %%%%& oooooo",
"++++++$$ $ $ $    $X&XXX&     .#ooooo.+X+X+&    ..#ooooo%+++++% .   .OOOOO@%%%%%%@OOOOO %&%%% oooooo",
"++++++%$$$$$$   $ $XXX&X& . .  #ooooo.+XXXX&     .#oo#o#$++X+X%    ..OOOOOO%%%&%%@OOOOO %%%%%$oooooo",
"++++++$$ $ $      $X&XXX&   . .#ooooo.+X+XX&     @#oooo#$+++++% .   .OOOOO@%%%%%%.OOOOO %%&%& oo#ooo",
"++++++%$$$$ $ $ $ $XXX&X&  .   #ooooo.+XX+X&     .#oo#oo%++++X%    ..OOOOOO%%%%%%@OOOOO %%%%& oooooo",
"&&&&&&$$$$$$$     $X&XXX&.@@@@@O##### +XXXX&     @#oooo#$+++++% .   @OOOOOO%&&&&&@OOOO# &&&&&$######",
"@.@.@.%&&&&&% $ $ $XXXXX&@OOOOOOOOOOO$XXX+X& . . @#oo#o#$+++++%. . .@ooooo#&+++XXOooooo@XX&X&%OOOOOO",
"@@@@@@%&&&&&$    $$XXXXX&@OOOOOOOOOOO$XXXXX&  . .@#ooooo%++X++%.  . Oooooo#&+X++XOooooo@X&X&X$OOOOOO",
".@.@.@%&&&&&%  $  $XXXXX%@OOOOOOOOOOO$XXX+X&  .  @#oo#o#$++++X%. .  @oo#o##&++X+XOooooo@X&X&X%OOOOOO",
"@@@@@.%&&&&&% $  $$XXXXX&@OOOOOOOOOOO$XXXXX& . . @#oooo#$+++++%. . .@o#ooo#&+X+XXOooooo@X&X&X$OOOOOO",
"@.@.@@%&&&&&%  $  $XXXXX&@OOOOOOOOOOO$+X+X+& . . @#oo#oo%+++++%.   .@ooo#o#&++++XOooooo@XXX&X%OOOOOO",
"@@@@@.%&&&&&$     $&&&&&%@OOOOOOOOOOO$XX&X&%  . ..######$++X+X%. . .@o#ooo#&+X+XXOooooo@X&XXX%OOOOOO",
"......%XXXXX$......$  $  OOOOOOOOOOOO@ . .  .    .@@@O@@%XXXXX$.... Oooooo#&++X+XOooooo.++X+X%OOOOOO",
"......%XX&XX$@......    .OOOOOOOOOOOO@.@.@.@      @@@@@@%X&&X&%.....Oooooo#&+X+XXOooooo@+++++%OOOOOO",
"......%XXXXX$@.@.@.      OOOOOO@OOOOOO..@...    . @@@@@@%XXX&X$.....@ooooo#&++++XOooooo.+++++%OOOOOO",
"......%X&X&X$@.@...     .OOOOOOOOOOOO@.@.@.@      @@@@@@%X&X&X$.....Oooooo#&+X+XXOooooo.+++++%OOOOOO",
"......%XXXXX%@...@.      OOOOOOOOOOOO@..@...     ..@@@@@%XX&XX$.... Oooooo#&++X+XOooooo.+++++%OOOOOO",
"......%X&X&X$@.@.@. .   .OOOOOOOOOOOO@.@.@.@      @@@@@@%X&X&X$.....@ooooo#&+X++XOooooo.+++++%OOOOOO",
"......$$%$$% .@.@..     .######O.@..@.  .   .......@....%XXXXX%.....@#####O&+XXXX@OOO#O XXXXX%......",
".@.@.@ $$$$$...@.@.     .#ooooo@  .  .     ..........@..&+++++%.....@#####O&XX+XX.OOOOO$XXXXX%  . . ",
"@.@.@. $ $ $ .@.@..     @#oooooO . .        .......@....%++XXX%.. ..@#####O&XXXXX.OOOOO$XXXXX%      ",
".@.@.@ $$$$  ..@.@.     .#ooooo@  . .       ..........@.&+X+++$.... @##O##O&X+X+X.OOOOO$XXXXX&      ",
"@.@... $$ $$ .@.@..     @#oooooO . .        .......@....%+++X+%.....@#####O&XXXXX.OOOOO$XXXXX%      ",
".@.@.@ $$$ $.@...@.     .#ooooo@  . .       ............&+X+++%.....@#####O&X+X+X.OOOOO$XXXXX%      ",
".......@@@.@ $$$$$$.....@#ooooo@          .$$%$%%$OOOOOO%+++X+$@@@@@@@@@@@@X+++++.OOOOO$XXXX+%......",
"      OOOOOO %%%%%$.....@#o#o##@$ $ $  . ..$+++++&O#####%+++++$OOOOO@$$$$$%++++++ OOOOO$+XXXX%@@@@@@",
" . . .@OOOOO %%%%&$..@.@@#oo#oo@$  $   .  .$+++++&O#####%++X++$OOOOO@$$$$$%++++++ OOOOO$XX+X+%@@@@@@",
" . . .@OOOOO %&%%%%.@.@.@#o#o##@$ $ $ . . .$++X++&O#####%+++++$OOOOO@$$$$$$++++++ OOOOO$XXXXX%@@@@@@",
" . .  OOOOOO %%%&%$..@.@@#o#ooo@$  $    . .$+++++&O#####%+++++$OOOOO@$$$$$%++++++ OOOOO$XX+X+%@@@@@@",
"  . . @OOOOO %%%%%%.@.@.@#o#o##@ $  $  .   $++X++&O#####%+++++$OOOOO@$$$%$%++++++ OOOOO$+XXXX%@@@@@@",
"......O#OOOO &&&&&%..@.@@#ooooo $$$%$ O@O@O X++++&######%+++++$OOOOO@$$%$$%&XX+XX.OOOOO$XX+X+%@@@@@@",
"......#ooooo@+XXXX%.....@oooooo$+X+X+.oooooO&X&XX%#ooooo%+++++$OOOOO@%%%%&%      @OOOOO$XXXXX%@@@@@@",
"..@...#ooooo.+X+X+%.....@oooooo$+++++.oooooO&XX&X&#ooooo%+++++$OOOOO@%&%%%%     .@OOOOO$XXXX+%@@@@@@",
"....@.#ooooo@+XXXX%.....@oooooo$++X++.oooooO&XXXX%#oooo#$+++++$OOOOO@%%%%%%      OOOOOO$XXXXX%@@@@@@",
"@.....#ooooo.+X+X+%.....@oooooo$+X++X.oooooO&XX&X&#ooooo%+++++$OOOOO@%%%&%%      @OOOOO$XXXX+%@@@@@@",
"..@...#ooooo@+XXXX%.....@oooooo$++X++.oooooO&XXXX%#ooooo%+++++$OOOOO@%%%%%%      @OOOOO$XXXXX%@@@@@@",
"......#ooooo.+X+X+%..@.@@#ooooo$+X+X+.o###oO&XX&X&######%+++++$OOOOO@%%&&&%     .@OOOOO$XXXXX%@@@@@@",
"......#ooooo.XXXXX%@@@@@@#o####$XXXXX$@@@@@ XXXXX&.@@@@@%XXXXX.#####OX+XXXX .....@@..@.$XXXX+%OOOOOO",
"..... #ooooo.XXXXX%@@@@@O###o##$XXX&X%.....$XXXXX& .... %X&X&X.#####OX++++X .@.@......@%XXXXX%OOOOOO",
"......#ooooo.XXXXX%@@@@@@######$XX&XX$.....$XXXXX& .....%X&X&X.#####OX++++X .@.@.@..@..$XXXXX%OOOOOO",
"..... #ooooo.XXXXX%@@@@@@##o###$XXXXX$.....$XXXXX& ... .%X&X&X.#####OX+++XX ..@.......@%XXXXX%OOOOOO",
"......#ooooo.XXXXX%@@@@O@######$XX&XX%.....$XXXXX& .....%X&XXX.#####OX++++X .@.@.@..@..$XXXXX%OOOOOO",
"..... #ooooo.XXXXX%@@@@@@######$X&&&X$.. ..$XX&XX& ... .%XX&&X.#####OX+++XX ..@.@..@...$XXXXX%OOOOOO",
"......#ooooo@&&&&&%...@.@OOOOOOOOOOOO %%%%%% $$$$  .....&+++++ ####oOXXXXX& .@...O#O### XXXXX%OOOOOO",
"... ..#ooooo@&&&&&% .    .@....######.XXXXX%...@........&+++++ #o#o#O&XX&X& .....##o###.XX&XX%OOOOOO",
"......#ooooo@&&&&&%    . .@@@@@Oo###o.X&X&X%............&+++++ #o##oO&X&X&& ..@..####o#.XXXX&%OOOOOO",
"... ..#ooooo@&&&&&% .   ..@.@.@###o##.X&X&X%............&+++++ ##o##O&X&X&& .....##o##o.XX&XX%OOOOOO",
"......#oooooO&&&&&%    . @@@@.@Oo###o.X&X&X%............&+++++ #o##oO&X&X&& .....Oo#o##.XXX&X%OOOOOO",
"......#ooooo@&&&&&% .    .@@.@@######.X&X&X%............&+++++ ###o#O&XX&X& .@...#o###o.X&XXX%OOOOOO",
"$$$$$$O#####.X&&&&% ... .......##o#o#.+XXX+&      $%$%$%%&&&&&@oooooO&X&XX& .....#ooooo.XX&&X$O#O#O#",
"&&&X&&.OOOOO$XXXXX%......     .Oo#o#o +++++&     $XXXXXX$ $ $ OoooooOXXXXX& .....#ooooo@X&X&X$######",
"&&&&&&@OOOOO$XXXXX%......      #o#o#o +++++X     $XX+X+X%$$$$$Oooooo#XXXXX& .....#ooooo@X&&&X$#o#o#o",
"&&&&&&.OOOOO$XXXXX%......     .Oo#o#o +++++& $ $  XXXXXX$ $ $ OoooooOXXXXX& .....#ooooo@X&X&X$###o##",
"&&&&&&@OOOOO$XXXXX%......     .#o#o#o +++++X     $XX+X+X%$$$ $Oooooo#XXXXX& .....#ooooo@X&&X&$#o##o#",
"&&&&&&.OOOOO$XXXXX%......     .Oo#o#o +++++X $ $ $XXXXXX$ $ $$OoooooOXXXXX& .....#ooooo@X&&&X$##o###",
"&X&&&&.OOOOO$XXXXX%............#oo#oo +++++%@@@@@@X+++++%$$$ $Oooooo#XXXXX& .....#ooooo@XXXXX$#o#ooo",
"XX+X+X.OOOOO$XXXXX&      @@@@@@#ooooo@XXXXX$ooooo#X+++++$$$ $$OoooooOX++X+X ..@..#ooooo.+X+++$oooooo",
"X+XXXX.OOOOO$XXXXX&     .@@@@@@#ooooo@X&&&X$ooooo#X+++++%$ $$ Oooooo#X+X+XX .@.@@#o#o#o +++++$oooooo",
"+XXX+X.OOOOO$XXXXX&    . @@@@@@#ooooo@XXXXX$ooooo#X+++++$$$ $$OoooooOX++++& ..@..#oo#oo.+++++$oooooo",
"X+X+XX.OOOOO$XXXXX&      @@@@@@#ooooo@X&&&X$ooooo#X+++++%$ $$$Oooooo#X+X+XX .@.@@#o#o#o ++X++$oooooo",
"+XXXXX.OOOOO$XXXXX&     .@@@@@@#ooooo@X&XXX$ooooo#X+++++%$$$$ OoooooOX++X+& ..@..#o#ooo.+++++$oooooo",
"X+X+XX.OOOOO X+X+X&      @@@@@@#ooooo@XXX&X$##o#o#X+++++%$ $ $Oooooo#X+X++X .@.@.O##### +++++$oooooo",
"++++++Oooooo +++++&     ..@.@..#ooooo +++++&@@@@@.&X+++X$     OoooooOX+++XX ......    .%XXXX+$oooooo",
"++++++Oooooo.+++++X      .....@#ooooo +++++X..... &XXXXX$     OoooooOX++++X .....   $  %XXXXX$o#oooo",
"+++++XOooooo +++++&      ..@...#ooooo +++++&..... &XXXXX$     Oo#o#oOX++++X .....$ $ $ %XXXX+$oooo#o",
"++++++Oooooo.+++++X      ....@.#ooooo.+++++X..... &XXXXX$    $Oo#o#oOX++++X .....  $ $ %XXXXX$o#oooo",
"+++++XOooooo +++++&      ......#ooooo +++++&..... &XXXXX$     Ooo#ooOX++++X ..... $ $  %XXXXX$oooo#o",
"++++++Oooooo.+++++X      ..@...#ooooo.+++++X..... &XXXXX$     Oo#o#oOX++++X .....    $ %X&XXX$#o#oo#",
"XXXXXX.OOOOO %%%%%$........... O#OO#O &&XX&%.@@@@.  $  $    $ .@@O@@ X++X+X .....OOOOO#OOOOOO@$%$%%%",
"XXXXXX @.@.@ $ $ $ ......     .@OOOOO %%%%%$@@@@@@@.@@.@ $ $       .$X+X+XX .....##oo##ooooooO++++++",
"X&X&X&$@.@@..$$$$$ .@.@.@ . . .@OOOOO %&%%%%@@@@@@@@.@@@     $  .   $X++++X .... ######ooooooO++++++",
"XXXXXX @@.@@ $ $ $ .@.@.@ . . .OOOOOO %%%&%$@@@@.@.@@.@.  $ $     . $X+X+XX .....Oo##o#ooooooO++++++",
"X&X&X&$@@@@..$$$$$ ..@.@.. . . @OOOOO %%%%&$@@@@@@@@.@@@  $     .   $X++X+X .....######ooooooO++++++",
"XXXXX& @.@.@ $$ $$ .@@@@..  . .OOOOOO %&%%%%@@@@@@.@@.@.   $ $      $X+X+XX .....Oo##o#oooooo#++++++",
"XXXX+X$.....@OOOOO@$$$%$$ .....@OOOOO %%%%%%$$%$$$OOOOOO.     @OOOOO.+++++X     .O#O#O#O.@@@@ %%%%%%",
"++++++$     Ooo#ooOXXXXX& .....OOOOOO %%&%%&XXX++&######@  .  OoooooO+++++X$     @OOOOO$+++++& . .. ",
"++++++$     Oo#o#oOXXXXX& ...@.@OOOOO %%%%%&XX+XX&O#####@  . .OoooooO+++++X$     @OOOOO$+X+X+&      ",
"++++++$ .   Ooo#ooOXXXXX& .....OOOOOO %&%%%&X+XX+&O#####@ . . Ooo#ooO+++++X$     @OOOOO$++++X&      ",
"++++++$     Oo#o#oOXXXXX& ...@.@OOOOO %%%%%&XXX+X&O#####@  . .OoooooO+++++X$     @OOOOO$++X++&      ",
"++++++$ .   Oooo#oOXXXXX& .....OOOOOO %%&%%&X+XXX&######@ . . OoooooO+++++X$     OOOOOO$+++++&      ",
"&XXXX&$     O#####OXXXXX& .....@O@@O@ %%$%$%XXXX+&O#OO#O@.....O###O#@+++++X$     @O@O@O$&&&&&%..@.@.",
"$$$$$$ . . .@OOOOO.XXXXXX$      ...... .   $XXXXX& .....@......   . $++++++      . ....      .OOOOOO",
" $ $ $ . . .@OOOOO.XX+X+&$  $    .. ... . .$XXXXX& .......@.@..     $++++++    .  .....      .OOOOOO",
"$$$ $$  . . @OOOOO.XXXXXX       ......  . .$XXXXX& . . ..@.@.@.    .$++++++$     ......      .OOOOOO",
"$ $$ $ . . .@OOOOO.X+X+XX$  $   .... . .  .$XXXXX& .......@.@.. .   $++++++    .  .....      .OOOOOO",
"$$$ $$ . . .@OOOOO.XXXXXX       ...... . ..$XXXXX& .. ...@.@.@.     $++++++$ .   ......      .OOOOOO",
"$ $$ $  .  .@OOOOO.X+X+XX$  $   ....... . .$XXXXX& .......@.@..  .  $++++++    .  .....      .OOOOOO"
};
